<svg width="80" height="80" viewBox="0 0 80 80" fill="none" xmlns="http://www.w3.org/2000/svg">
<g clip-path="url(#clip0_3_294)">
<path fill-rule="evenodd" clip-rule="evenodd" d="M42.1431 37.0301C42.1431 45.2979 42.7541 53.5654 43.9322 61.7459L46.485 79.3689C44.1941 79.7607 41.8595 80 39.4593 80C37.0593 80 34.7247 79.7824 32.4337 79.3689L34.9866 61.7459C36.1647 53.5654 36.7758 45.2979 36.7758 37.0301V0.108784C37.6704 0.0435136 38.5431 0 39.4593 0C40.3758 0 41.2704 0.0435136 42.1431 0.108784V37.0301ZM15.1752 71.8195L25.6264 51.5854C26.4118 50.0626 26.8264 48.3654 26.8264 46.6468V2.04515C10.8769 7.33207 -0.643372 22.3225 -0.643372 39.9892C-0.643372 52.9779 5.57495 64.5092 15.1752 71.8195ZM52.0925 46.6468C52.0925 48.3654 52.5071 50.0626 53.2925 51.5854L63.7219 71.8195C73.3438 64.5092 79.5402 52.9779 79.5402 39.9892C79.5402 22.3008 68.02 7.31031 52.0706 2.04515V46.6468H52.0925Z" fill="url(#paint0_linear_3_294)"/>
</g>
<defs>
<linearGradient id="paint0_linear_3_294" x1="39.4593" y1="14.9252" x2="39.4593" y2="89.7035" gradientUnits="userSpaceOnUse">
<stop stop-color="#00BFCB"/>
<stop offset="1" stop-color="#6619D0"/>
</linearGradient>
<clipPath id="clip0_3_294">
<rect width="80" height="80" fill="white"/>
</clipPath>
</defs>
</svg>
